<svg xmlns="http://www.w3.org/2000/svg" width="20" height="20" spin="false" rtl="false" viewBox="0 0 20 20" preserveAspectRatio="xMidYMid meet" fill="none" role="presentation" class="ml-2 i-icon flex-none" data-v-5be45602=""><g data-v-5be45602=""><path d="M0 4a4 4 0 0 1 4-4h12a4 4 0 0 1 4 4v12a4 4 0 0 1-4 4H4a4 4 0 0 1-4-4V4Z" fill="#D6ECFF" data-v-5be45602=""></path><path d="M9.27 7.545H4.456V6.181H9.23a18.187 18.187 0 0 0-.736-1.806L9.86 4c.32.803.561 1.525.735 2.18h4.923v1.365H10.69v2.636h4.174v1.324H10.69v3.13h5.284V16H4v-1.364h5.27v-3.131H5.11v-1.324h4.16V7.545Z" fill="#0A6AFF" data-v-5be45602=""></path></g></svg>
