<svg t="1698174354749" class="icon" viewBox="0 0 1160 1024" version="1.1" xmlns="http://www.w3.org/2000/svg" p-id="1754" width="128" height="128"><path d="M989.864687 477.867759l170.666325 272.724788L989.864687 1024h-341.332651L477.865711 750.592547 648.532036 477.867759h341.332651zM681.846103 0.002048c18.909829 0.136533 37.000459 7.645851 50.244166 20.889558 13.243707 13.17544 20.548226 30.993005 20.411693 49.493235v139.263721h132.573601c18.909829 0 37.000459 7.372785 50.244166 20.616492 13.243707 13.243707 20.616492 31.129538 20.411693 49.698034v98.303803h-59.664947V277.57376H692.905281V58.77953H152.234362V965.290784h323.310287V1024H0v-58.777482h92.569415V69.565642c0.136533-18.568496 7.782384-36.386061 21.162624-49.424968 13.107174-12.970641 30.924738-20.275159 49.493235-20.138626h518.620829z m274.704517 533.434666H681.095171l-138.171457 217.087566 138.171457 217.906764h275.455449l138.103191-217.838497-134.96293-212.035843-3.140261-5.11999zM818.788762 614.400819c74.75185 1.365331 135.099463 61.439877 136.94266 136.123461A136.53306 136.53306 0 1 1 818.788762 614.400819z m0.819199 64.238805a5.461322 5.461322 0 0 0-5.051723 0 69.973193 69.973193 0 0 0-67.583865 72.703855c2.321062 34.133265 26.623947 62.600408 59.938013 70.177993v1.706663h12.697575a72.567322 72.567322 0 0 0 50.858565-123.56242 71.748123 71.748123 0 0 0-50.858565-21.026091zM409.599181 546.134289v68.26653H273.066121V546.134289h136.53306z m136.53306-204.79959v68.26653H273.066121V341.334699h273.06612z m0-136.533061v68.266531H273.066121V204.801638h273.06612z" fill="#ffffff" p-id="1755"></path></svg>
