<svg xmlns="http://www.w3.org/2000/svg" width="16"
     height="16" spin="false" rtl="false" viewBox="0 0 16 16"
     preserveAspectRatio="xMidYMid meet" fill="none" role="presentation"
     class="i-icon align-text-bottom" data-v-5721312b="">
    <g data-v-5721312b="">
        <circle fill="#FF6C2C" r="8" cy="8" cx="8" data-v-5721312b=""></circle>
        <path fill="#fff"
              d="M4.309 6.55c0-.047.003-.075.084-.075H5.46c.187 0 .29.158.364.457l.06.24h.183c.034-.677.06-.972.06-.972s-.458.052-.729.052H4.032L3.3 6.226v.196l.247.047c.171.034.214.07.227.228 0 0 .015.467.015 1.236 0 .77-.015 1.233-.015 1.233 0 .14-.056.19-.227.224l-.247.049v.196l.732-.023h1.223c.277 0 .916.023.916.023.015-.168.108-.93.121-1.013H6.12l-.183.415c-.145.327-.355.351-.588.351h-.695c-.233 0-.345-.093-.345-.295V8.028s.519 0 .687.015c.13.01.21.047.252.228l.056.243h.2l-.015-.613.028-.616h-.2l-.065.27c-.043.178-.07.212-.252.23-.24.023-.691.02-.691.02V6.548Zm6.154 3.841c-.14 0-.183-.065-.202-.159l-.071-.364-.196.01a4.604 4.604 0 0 1-.127.65c.13.09.29.13.504.13.318 0 .794-.09 1.223-1.102l.748-1.77c.06-.14.078-.16.26-.228l.098-.038v-.164l-.444.023-.467-.023v.164l.121.038c.121.037.178.078.178.177 0 .053-.015.075-.042.14-.052.131-.382.95-.545 1.304a32.83 32.83 0 0 1-.521-1.393.241.241 0 0 1-.015-.075c0-.075.052-.135.164-.159l.154-.033v-.163l-.64.023-.507-.023v.164l.084.028c.121.042.134.056.215.234.32.728.681 1.658.799 1.961-.254.508-.553.648-.771.648ZM8.552 8.884l-.177.004a2.85 2.85 0 0 1 0 .653s.354.131.713.131c.486 0 .874-.233.874-.687 0-.794-1.177-.669-1.177-1.2 0-.22.202-.302.408-.302.171 0 .313.06.34.15l.115.35.172-.009a5.14 5.14 0 0 1 .052-.575c-.149-.065-.463-.103-.657-.103-.458 0-.826.202-.826.65 0 .785 1.15.613 1.15 1.2 0 .195-.128.345-.408.345-.265 0-.396-.135-.448-.271l-.131-.336ZM7.082 6.68c-.099.564-.368.77-.7.807v.164h.414v1.435c0 .401.266.597.62.597.277 0 .56-.116.658-.358l-.097-.127a.469.469 0 0 1-.381.194c-.206 0-.318-.14-.318-.495V7.633l.691.052.038-.318-.729.026V6.68h-.196Z"
              data-v-5721312b=""></path>
    </g>
</svg>
