<svg xmlns="http://www.w3.org/2000/svg" width="16" height="16" viewBox="0 0 16 16" fill="none">
    <circle cx="8" cy="8" r="8" fill="url(#paint0_linear_5302_62935)"/>
    <path fill-rule="evenodd" clip-rule="evenodd" d="M9.40948 4.51294H6.59052C5.44487 4.51294 4.51282 5.44499 4.51282 6.59064V9.4096C4.51282 10.5552 5.44487 11.4873 6.59052 11.4873H9.40948C10.5551 11.4873 11.4872 10.5552 11.4872 9.4096V6.59064C11.4872 5.44499 10.5551 4.51294 9.40948 4.51294ZM10.7856 9.40948C10.7856 10.1695 10.1695 10.7856 9.40948 10.7856H6.59052C5.83054 10.7856 5.21444 10.1695 5.21444 9.40948V6.59052C5.21444 5.83053 5.83054 5.21444 6.59052 5.21444H9.40948C10.1695 5.21444 10.7856 5.83053 10.7856 6.59052V9.40948ZM6.19618 8.00002C6.19618 7.0054 7.00537 6.19621 8 6.19621C8.99463 6.19621 9.80382 7.00539 9.80382 8.00002C9.80382 8.99465 8.99463 9.80384 8 9.80384C7.00537 9.80384 6.19618 8.99463 6.19618 8.00002ZM8 9.10223C7.39127 9.10223 6.89781 8.60877 6.89781 8.00003C6.89781 7.3913 7.39128 6.89784 8 6.89784C8.60873 6.89784 9.1022 7.3913 9.1022 8.00003C9.1022 8.60875 8.60872 9.10223 8 9.10223ZM9.80731 6.64191C10.046 6.64191 10.2395 6.44839 10.2395 6.20968C10.2395 5.97096 10.046 5.77744 9.80731 5.77744C9.5686 5.77744 9.37508 5.97096 9.37508 6.20968C9.37508 6.44839 9.5686 6.64191 9.80731 6.64191Z" fill="white"/>
    <defs>
        <linearGradient id="paint0_linear_5302_62935" x1="0.0534566" y1="-0.0267282" x2="2.49802e-07" y2="15.9733" gradientUnits="userSpaceOnUse">
            <stop stop-color="#7024C4"/>
            <stop offset="0.415461" stop-color="#C21975"/>
            <stop offset="0.702206" stop-color="#C74C4D"/>
            <stop offset="1" stop-color="#E09B3D"/>
        </linearGradient>
    </defs>
</svg>
