
<svg width="78" height="78" viewBox="0 0 78 78" fill="none" xmlns="http://www.w3.org/2000/svg">
    <g clip-path="url(#clip0_11051_140920)">
        <path d="M39 0C17.0332 0 0 16.0973 0 37.83C0 49.1985 4.6605 59.0265 12.246 65.8125C12.8797 66.378 13.2697 67.1775 13.2892 68.0355L13.5037 74.9775C13.572 77.1908 15.8535 78.6338 17.8815 77.7368L25.623 74.3243C26.2762 74.0318 27.0173 73.983 27.7095 74.1683C31.2682 75.1433 35.0513 75.6698 39 75.6698C60.9667 75.6698 78 59.5725 78 37.8398C78 16.107 60.9667 0 39 0Z" fill="url(#paint0_radial_11051_140920)"/>
        <path d="M15.5804 48.8963L27.0367 30.7223C28.8599 27.8266 32.7599 27.1148 35.4997 29.1623L44.6159 35.9971C45.4544 36.6211 46.6049 36.6211 47.4337 35.9873L59.7382 26.6468C61.3762 25.3988 63.5212 27.3683 62.4292 29.1136L50.9632 47.2778C49.1399 50.1736 45.2399 50.8853 42.5002 48.8378L33.3839 42.0031C32.5454 41.3791 31.3949 41.3791 30.5662 42.0128L18.2617 51.3533C16.6237 52.6013 14.4787 50.6416 15.5804 48.8963Z" fill="white"/>
    </g>
    <defs>
        <radialGradient id="paint0_radial_11051_140920" cx="0" cy="0" r="1" gradientUnits="userSpaceOnUse" gradientTransform="translate(15.015 77.5753) scale(84.9888)">
            <stop stop-color="#0099FF"/>
            <stop offset="0.6098" stop-color="#A033FF"/>
            <stop offset="0.9348" stop-color="#FF5280"/>
            <stop offset="1" stop-color="#FF7061"/>
        </radialGradient>
        <clipPath id="clip0_11051_140920">
            <rect width="78" height="78" fill="white"/>
        </clipPath>
    </defs>
</svg>
