<svg xmlns="http://www.w3.org/2000/svg" width="16"
     height="16" spin="false" rtl="false" viewBox="0 0 16 16"
     preserveAspectRatio="xMidYMid meet" fill="none" role="presentation"
     class="i-icon align-text-bottom" data-v-6453035b="">
    <g data-v-6453035b="">
        <circle fill="#FF2442" r="8" cy="8" cx="8" data-v-6453035b=""></circle>
        <path fill="#fff"
              d="M7.07 11.576c.058-.129.108-.24.16-.349.122-.224.23-.455.328-.692a.41.41 0 0 1 .489-.305c.309.021.62.005.942.005V6.213c-.217 0-.431-.008-.644 0-.148.007-.2-.041-.196-.2.01-.38 0-.763 0-1.161h3.013v.924c0 .434 0 .434-.421.434h-.424v4.022h.914c.369 0 .369 0 .369.386v.811c0 .112-.028.17-.15.17-1.43-.003-2.86-.005-4.29-.004a.53.53 0 0 1-.09-.02Z"
              data-v-6453035b=""></path>
        <path fill="#fff"
              d="M7.64 8.663c-.189.388-.355.735-.528 1.076a.163.163 0 0 1-.127.063c-.419 0-.84.017-1.257-.014-.418-.032-.586-.3-.42-.71.19-.474.419-.932.63-1.396.014-.03.024-.06.05-.124-.17 0-.318.004-.467 0-.12.002-.24-.01-.359-.033a.423.423 0 0 1-.361-.472.432.432 0 0 1 .04-.142c.255-.61.539-1.207.813-1.808.09-.196.183-.39.284-.582.026-.05.086-.113.131-.115.393-.01.785-.005 1.213-.005-.037.095-.058.16-.087.221-.24.502-.48 1.004-.722 1.504-.049.101-.108.207.074.284.049-.26.245-.213.417-.213h.99c-.042.099-.068.167-.099.233-.305.64-.616 1.274-.917 1.912-.124.26-.083.323.205.326.148-.004.299-.005.496-.005Zm-.54 1.573c-.232.466-.439.884-.652 1.3a.143.143 0 0 1-.107.062c-.57-.007-1.14-.018-1.712-.033a1.114 1.114 0 0 1-.229-.06l.32-.646c.103-.213.205-.425.317-.628.03-.05.08-.083.137-.09.523.025 1.046.062 1.57.094.104.005.204 0 .357 0Z"
              data-v-6453035b=""></path>
    </g>
</svg>
