<svg xmlns="http://www.w3.org/2000/svg" width="16"
     height="16" spin="false" rtl="false" viewBox="0 0 16 16"
     preserveAspectRatio="xMidYMid meet" fill="none" role="presentation"
     class="i-icon align-text-bottom" data-v-4ebbe239="">
    <g data-v-4ebbe239="">
        <path fill="#fff" d="M0 8a8 8 0 1 1 16 0A8 8 0 0 1 0 8Z" data-v-4ebbe239=""></path>
        <path fill="#DE5634"
              d="M9.286 8.643a.643.643 0 1 0 1.285 0 .643.643 0 0 0-1.285 0Zm2.571-1.929a.641.641 0 0 0-.58.368c.336.256.614.548.82.872a.642.642 0 0 0-.24-1.24Z"
              data-v-4ebbe239=""></path>
        <path fill="#DE5634"
              d="M8 0a8 8 0 1 0 0 16A8 8 0 0 0 8 0Zm4.375 8.534c.082.241.125.493.125.752 0 1.775-2.014 3.214-4.5 3.214s-4.5-1.44-4.5-3.214c0-.26.043-.511.125-.752a1.286 1.286 0 1 1 1.641-1.802 5.589 5.589 0 0 1 2.288-.644l1.042-2.342a.38.38 0 0 1 .456-.21l1.636.473a.964.964 0 1 1-.06.777l-1.467-.423-.768 1.723a5.628 5.628 0 0 1 2.343.648 1.285 1.285 0 1 1 1.64 1.8Z"
              data-v-4ebbe239=""></path>
        <path fill="#DE5634"
              d="M9.316 10.016c-.266.209-.791.434-1.316.434s-1.052-.225-1.316-.434a.38.38 0 1 0-.471.6c.458.364 1.16.598 1.787.598s1.329-.234 1.79-.598a.381.381 0 1 0-.474-.6ZM4.143 6.714a.642.642 0 0 0-.24 1.24c.206-.324.485-.616.82-.872a.641.641 0 0 0-.58-.368Zm1.286 1.929a.643.643 0 1 0 1.285 0 .643.643 0 0 0-1.285 0Z"
              data-v-4ebbe239=""></path>
    </g>
</svg>
