<svg xmlns="http://www.w3.org/2000/svg" width="16"
     height="16" spin="false" rtl="false" viewBox="0 0 16 16"
     preserveAspectRatio="xMidYMid meet" fill="none" role="presentation"
     class="i-icon align-text-bottom" data-v-6dbc0a99="">
    <g data-v-6dbc0a99="">
        <circle fill="#DF633D" r="8" cy="8" cx="8" data-v-6dbc0a99=""></circle>
        <path fill="#fff"
              d="M9.254 6.063v.02H6.806v-.02c0-.549.16-1.029.4-1.362.24-.333.537-.493.823-.493.286 0 .583.16.823.493.24.333.4.813.4 1.362Zm-4.628.02H6.4v-.02c0-1.25.73-2.263 1.631-2.263s1.631 1.013 1.631 2.263v.02h1.77c.19 0 .339.162.325.35l-.362 4.935a.897.897 0 0 1-.895.832H5.51a.897.897 0 0 1-.896-.84L4.3 6.43a.326.326 0 0 1 .325-.347Zm2.77 4.832c.199.088.432.13.7.127.241-.004.45-.048.626-.133.18-.084.322-.2.424-.344a.824.824 0 0 0 .154-.488 1.02 1.02 0 0 0-.095-.466.827.827 0 0 0-.255-.308 1.431 1.431 0 0 0-.37-.201 3.92 3.92 0 0 0-.436-.149 5.727 5.727 0 0 1-.44-.17 1 1 0 0 1-.334-.238.53.53 0 0 1-.127-.366c0-.134.037-.249.112-.344a.723.723 0 0 1 .312-.218c.135-.053.285-.079.45-.079a1.23 1.23 0 0 1 .653.186.889.889 0 0 1 .228.196.123.123 0 0 0 .09.037.162.162 0 0 0 .117-.053c.035-.036.053-.07.053-.106 0-.046-.027-.097-.08-.154a1.04 1.04 0 0 0-.461-.313 1.71 1.71 0 0 0-.6-.106c-.24 0-.451.043-.635.127a.98.98 0 0 0-.419.34.862.862 0 0 0-.148.498c0 .166.028.307.084.424a.845.845 0 0 0 .239.297c.102.078.219.145.35.201.13.053.268.101.413.143.177.054.338.114.483.18a.965.965 0 0 1 .35.25c.088.099.132.23.132.392 0 .13-.039.246-.117.345a.739.739 0 0 1-.318.228 1.393 1.393 0 0 1-1.018-.037 1.438 1.438 0 0 1-.466-.34.162.162 0 0 0-.117-.053.162.162 0 0 0-.116.053.17.17 0 0 0-.032.191 1.95 1.95 0 0 0 .615.45Z"
              clip-rule="evenodd" fill-rule="evenodd" data-v-6dbc0a99=""></path>
    </g>
</svg>
