<svg xmlns="http://www.w3.org/2000/svg" width="16"
     height="16" spin="false" rtl="false" viewBox="0 0 16 16"
     preserveAspectRatio="xMidYMid meet" fill="none" role="presentation"
     class="i-icon align-text-bottom" data-v-2660c1e3="">
    <g data-v-2660c1e3="">
        <circle fill="#4C9AE9" r="8" cy="8" cx="8" data-v-2660c1e3=""></circle>
        <path fill="#fff"
              d="M11.282 5.965c-.241.107-.501.18-.774.212a1.35 1.35 0 0 0 .593-.745 2.72 2.72 0 0 1-.856.327A1.347 1.347 0 0 0 7.95 6.987 3.823 3.823 0 0 1 5.176 5.58a1.346 1.346 0 0 0 .417 1.797 1.336 1.336 0 0 1-.61-.168v.017c0 .652.464 1.196 1.08 1.32a1.345 1.345 0 0 1-.608.023c.171.535.669.924 1.258.935a2.705 2.705 0 0 1-1.994.558 3.811 3.811 0 0 0 2.064.605c2.477 0 3.832-2.052 3.832-3.831 0-.059-.002-.116-.004-.174.263-.19.492-.427.672-.697Z"
              clip-rule="evenodd" fill-rule="evenodd" data-v-2660c1e3=""></path>
    </g>
</svg>
