<svg xmlns="http://www.w3.org/2000/svg" width="16"
     height="16" spin="false" rtl="false" viewBox="0 0 16 16"
     preserveAspectRatio="xMidYMid meet" fill="none" role="presentation"
     class="i-icon align-text-bottom" data-v-5e352603="">
    <g data-v-5e352603="">
        <circle fill="#76549B" r="8" cy="8" cx="8" data-v-5e352603=""></circle>
        <path fill="#fff"
              d="M7.806 4c-.617 0-2.143.065-2.954.844-.585.552-.812 1.396-.844 2.403-.065 1.59.292 2.597.876 3.117.13.097.455.357 1.072.552v.811s0 .325.194.39c.033 0 .065.033.098.033.195 0 .357-.228.584-.455.195-.227.357-.39.455-.552H8c.617 0 2.143-.065 2.955-.844.584-.585.812-1.429.812-2.5.032-.163.032-.357.032-.552-.033-1.201-.39-2.013-.877-2.468C10.73 4.617 9.884 4 8.066 4h-.26Zm-.065.617h.293c1.72 0 2.37.552 2.435.617.39.324.617 1.039.65 1.98v.13c.032.195.032.357.032.455-.033.974-.228 1.623-.617 2.045-.682.617-2.11.65-2.5.65h-.617l-.52.584-.324.357-.065.098c-.065.065-.163.194-.228.227v-1.461c-.649-.162-.909-.39-.974-.455-.454-.39-.714-1.33-.649-2.597v-.325c.065-.78.26-1.299.584-1.656.682-.617 2.11-.65 2.5-.65Zm-.032.714a.114.114 0 0 0 0 .227c1.201 0 2.24.812 2.24 2.338 0 .163.228.163.228 0 0-1.656-1.104-2.597-2.468-2.565Zm-1.287.3a.284.284 0 0 0-.206.057c-.325.162-.65.488-.553.845 0 0 .065.292.423.909.194.292.357.552.52.746.161.228.421.487.68.682.52.422 1.332.844 1.69.942.324.097.681-.227.843-.552a.31.31 0 0 0-.097-.39 4.032 4.032 0 0 0-.747-.552c-.162-.097-.357-.032-.422.065l-.162.195c-.065.097-.227.097-.227.097C7.092 8.383 6.8 7.28 6.8 7.28s0-.13.097-.227l.195-.162c.097-.065.162-.26.065-.422-.065-.098-.162-.293-.26-.39-.097-.13-.292-.357-.292-.357a.312.312 0 0 0-.183-.09Zm1.514.35c-.162-.033-.195.227-.032.227.909.065 1.428.682 1.396 1.46-.033.163.227.163.227 0 .033-.908-.552-1.655-1.59-1.687Zm.098.616c-.163-.032-.163.228 0 .228.39 0 .584.227.584.617.033.162.26.162.26 0-.033-.52-.325-.845-.844-.845Z"
              data-v-5e352603=""></path>
    </g>
</svg>
