<svg xmlns="http://www.w3.org/2000/svg" width="16"
     height="16" spin="false" rtl="false" viewBox="0 0 16 16"
     preserveAspectRatio="xMidYMid meet" fill="none" role="presentation"
     class="i-icon align-text-bottom" data-v-553743ac="">
    <g data-v-553743ac="">
        <circle cx="8" cy="8" r="8" fill="#07C160" data-v-553743ac=""></circle>
        <path fill-rule="evenodd" clip-rule="evenodd"
              d="M11.249 10.655c.52-.381.853-.944.853-1.57 0-1.146-1.106-2.075-2.47-2.075-1.366 0-2.472.929-2.472 2.075 0 1.147 1.106 2.076 2.471 2.076.282 0 .554-.04.807-.113a.245.245 0 0 1 .204.027l.54.315c.016.008.03.015.048.015a.083.083 0 0 0 .083-.083c0-.02-.008-.04-.014-.06-.003-.012-.07-.263-.11-.42a.166.166 0 0 1 .06-.188ZM8.807 8.732a.31.31 0 0 1-.308-.31.31.31 0 0 1 .308-.312c.17 0 .309.14.309.311a.31.31 0 0 1-.309.311Zm1.648 0a.31.31 0 0 1-.308-.31.31.31 0 0 1 .308-.312c.17 0 .309.14.309.311a.31.31 0 0 1-.309.311Z"
              fill="#fff" data-v-553743ac=""></path>
        <path fill-rule="evenodd" clip-rule="evenodd"
              d="M6.863 4.718c-1.638 0-2.966 1.115-2.966 2.49 0 .752.4 1.427 1.025 1.884a.2.2 0 0 1 .073.226l-.134.502c-.006.024-.016.048-.016.073a.1.1 0 0 0 .1.1.11.11 0 0 0 .056-.02l.65-.377a.296.296 0 0 1 .245-.033 3.482 3.482 0 0 0 1.13.133 1.933 1.933 0 0 1-.1-.61c0-1.255 1.211-2.272 2.705-2.272.054 0 .068.001.121.004-.223-1.19-1.41-2.1-2.889-2.1Zm-.988 2.047a.352.352 0 0 1-.351-.353c0-.195.157-.354.35-.354.194 0 .351.159.351.354a.352.352 0 0 1-.35.353Zm1.977 0a.352.352 0 0 1-.35-.353c0-.195.156-.354.35-.354.193 0 .35.159.35.354a.352.352 0 0 1-.35.353Z"
              fill="#fff" data-v-553743ac=""></path>
    </g>
</svg>
