<svg xmlns="http://www.w3.org/2000/svg" width="16"
     height="16" spin="false" rtl="false" viewBox="0 0 16 16"
     preserveAspectRatio="xMidYMid meet" fill="none" role="presentation"
     class="i-icon align-text-bottom" data-v-5c518c70="">
    <g data-v-5c518c70="">
        <circle fill="#2B68F6" r="8" cy="8" cx="8" data-v-5c518c70=""></circle>
        <path fill="#fff"
              d="M11.383 9.947c.778-.06 1.257-.478 1.317-1.375-.12-.897-.539-1.316-1.317-1.436-.838.12-1.257.539-1.317 1.436.06.897.479 1.315 1.317 1.375Zm0-2.093c.359 0 .539.24.539.718s-.18.717-.54.717c-.358 0-.538-.239-.598-.717.06-.479.24-.718.599-.718ZM7.371 9.947c.3 0 .54-.12.719-.299.06.18.18.3.36.3.239 0 .358-.18.358-.48V7.676c0-.36-.12-.479-.359-.479-.18 0-.3.12-.36.3-.119-.24-.358-.36-.718-.36-.718.12-1.137.598-1.197 1.436.06.897.479 1.316 1.197 1.375Zm.12-2.093c.36 0 .54.24.599.718-.06.478-.24.717-.599.717s-.539-.239-.599-.717c.06-.479.24-.718.6-.718Zm1.976 2.093c.24 0 .36-.12.36-.418v-3.11c0-.24-.12-.419-.36-.419s-.36.18-.36.419v3.11c0 .299.12.418.36.418ZM3.3 6.658c.06.18.12.299.36.299h1.316L3.36 9.289c-.06.06-.06.18-.06.3 0 .179.12.298.42.358h1.975c.24-.06.36-.18.36-.359 0-.239-.12-.299-.36-.358H4.258l1.557-2.213c.12-.12.12-.24.12-.36 0-.238-.12-.358-.42-.358H3.66c-.24 0-.3.12-.359.359Z"
              data-v-5c518c70=""></path>
    </g>
</svg>
