<svg xmlns="http://www.w3.org/2000/svg" width="16"
     height="16" spin="false" rtl="false" viewBox="0 0 16 16"
     preserveAspectRatio="xMidYMid meet" fill="none" role="presentation"
     class="i-icon align-text-bottom" data-v-810228b3="">
    <g data-v-810228b3="">
        <circle fill="#40A9FF" r="8" cy="8" cx="8" data-v-810228b3=""></circle>
        <path fill="#fff"
              d="M11.233 7.078a3.212 3.212 0 0 0-1.715-1.69 3.237 3.237 0 0 0-1.254-.249c-.356 0-.705.056-1.036.168-.775-.356-1.67-.384-1.926-.384-.019 0-.063 0-.08.002a.304.304 0 0 0-.277.418l.546 1.353a3.133 3.133 0 0 0-.195 2.853 3.21 3.21 0 0 0 1.715 1.689c.397.165.818.25 1.253.25a3.245 3.245 0 0 0 2.28-.93 3.19 3.19 0 0 0 .69-1.01 3.128 3.128 0 0 0 0-2.47Zm-2.765.662c0 .17-.141.31-.315.31a.314.314 0 0 1-.316-.31v-.462c0-.17.141-.31.316-.31.173 0 .315.139.315.31v.462Zm1.49 0c0 .17-.142.31-.316.31a.313.313 0 0 1-.315-.31v-.462c0-.17.142-.31.315-.31.174 0 .316.139.316.31v.462Z"
              data-v-810228b3=""></path>
    </g>
</svg>
