<svg xmlns="http://www.w3.org/2000/svg" width="16"
     height="16" spin="false" rtl="false" viewBox="0 0 16 16"
     preserveAspectRatio="xMidYMid meet" fill="none" role="presentation"
     class="i-icon align-text-bottom" data-v-db954005="">
    <g data-v-db954005="">
        <circle fill="#385075" r="8" cy="8" cx="8" data-v-db954005=""></circle>
        <path fill="#fff"
              d="M10.037 7.658c.357.054.605.218.743.437.137.218.22.6.22 1.092 0 .982-.303 1.801-.908 2.429-.606.628-1.376.955-2.312.955-.358 0-.716-.054-1.074-.19a2.823 2.823 0 0 1-.88-.547 2.863 2.863 0 0 1-.633-.819c-.11-.3-.193-.6-.193-.9 0-.328.083-.6.22-.792.138-.191.386-.3.688-.382-.055-.137-.11-.246-.137-.355a.823.823 0 0 1-.055-.218c0-.164.082-.355.275-.546.192-.191.358-.273.523-.273a.61.61 0 0 1 .22.027.856.856 0 0 1 .275.136c-.248-.818-.495-1.5-.633-1.965-.137-.464-.193-.764-.193-.955 0-.246.056-.437.193-.574C6.486 4.082 6.68 4 6.9 4c.358 0 .826.819 1.404 2.484.11.273.165.491.22.655.055-.109.11-.3.193-.518.578-1.638 1.073-2.457 1.458-2.457.193 0 .358.054.496.19.11.137.192.328.192.547 0 .164-.055.491-.192.955-.165.464-.358 1.065-.633 1.802ZM5.798 10.06c.055.055.138.164.22.3.248.355.496.546.716.546a.25.25 0 0 0 .193-.082c.055-.054.082-.109.082-.136a.66.66 0 0 0-.11-.3 3.716 3.716 0 0 0-.33-.464c-.165-.192-.303-.355-.386-.437-.11-.082-.192-.137-.247-.137-.138 0-.275.082-.386.219a.835.835 0 0 0-.165.518c0 .164.028.328.11.546.083.191.193.41.358.6.248.274.523.52.881.683.358.164.716.246 1.156.246.77 0 1.404-.273 1.927-.846.522-.574.77-1.283.77-2.157 0-.273-.027-.464-.055-.628a.48.48 0 0 0-.193-.327c-.165-.137-.467-.246-.935-.355a6.457 6.457 0 0 0-1.459-.164c-.138 0-.248.027-.303.082-.055.055-.082.137-.082.246 0 .273.137.464.44.573.303.11.798.191 1.459.191h.247a.21.21 0 0 1 .138.055.384.384 0 0 1 .055.19c-.055.055-.193.137-.413.22-.22.081-.358.163-.468.245-.247.164-.44.382-.578.628-.137.245-.22.464-.22.682 0 .137.028.273.083.464.055.191.082.3.082.328v.109c-.165 0-.302-.11-.413-.3-.11-.191-.137-.437-.137-.765v-.054c-.028.027-.055.054-.083.054-.027 0-.055.028-.11.028h-.11c-.027 0-.055-.028-.11-.028 0 .055.028.082.028.137v.109a.563.563 0 0 1-.578.546c-.248 0-.496-.11-.771-.355-.248-.246-.385-.464-.385-.71 0-.054 0-.082.027-.109 0-.136.028-.164.055-.19Zm1.79.136a.299.299 0 0 0 .192-.081.293.293 0 0 0 .082-.191c0-.082-.055-.246-.165-.52a4.337 4.337 0 0 0-.413-.79 1.53 1.53 0 0 0-.357-.437.438.438 0 0 0-.33-.137c-.083 0-.166.055-.276.164-.11.109-.138.19-.138.3 0 .082.056.246.138.437.11.19.22.382.385.6.166.219.33.41.496.546.165.055.275.11.385.11Zm.577-2.838-.66-1.83c-.166-.463-.276-.791-.386-.927-.082-.137-.165-.219-.275-.219a.25.25 0 0 0-.193.082.349.349 0 0 0-.11.273c0 .191.083.491.22.928.138.437.358 1.037.633 1.747.028-.054.056-.082.11-.082.056-.027.11-.027.166-.027h.137c.083.027.193.027.358.055Zm.66 1.774c-.164 0-.33-.027-.495-.055a2.075 2.075 0 0 1-.44-.109c.055.137.11.246.165.382a2 2 0 0 1 .11.382c.083-.109.193-.218.303-.327.137-.11.248-.191.358-.273Zm.799-1.583c.275-.71.468-1.31.633-1.775.138-.464.22-.737.22-.846a.459.459 0 0 0-.082-.273.251.251 0 0 0-.193-.082c-.11 0-.22.082-.33.273a4.72 4.72 0 0 0-.386.874l-.605 1.692.743.137Z"
              data-v-db954005=""></path>
    </g>
</svg>
