<svg xmlns="http://www.w3.org/2000/svg" width="16"
     height="16" spin="false" rtl="false" viewBox="0 0 16 16"
     preserveAspectRatio="xMidYMid meet" fill="none" role="presentation"
     class="i-icon align-text-bottom" data-v-87d7fafe="">
    <g data-v-87d7fafe="">
        <circle fill="#296DF6" r="8" cy="8" cx="8" data-v-87d7fafe=""></circle>
        <path fill="#fff"
              d="M5.86 6.465c-.596 0-1.057.201-1.391.603C4.156 7.44 4 7.916 4 8.496c0 .595.156 1.07.476 1.443.327.386.78.58 1.369.58.49 0 .892-.127 1.19-.372.297-.253.498-.64.587-1.153h-.78c-.075.58-.402.878-.99.878-.342 0-.595-.127-.766-.365-.186-.245-.275-.587-.275-1.019 0-.431.089-.773.282-1.011.186-.246.44-.365.766-.365.268 0 .484.06.647.186.164.12.268.313.32.573h.781c-.074-.476-.268-.833-.565-1.071-.298-.223-.692-.335-1.183-.335ZM8.296 5v5.415h.736v-.462c.268.372.662.566 1.19.566.566 0 1.005-.201 1.332-.603.297-.372.446-.855.446-1.443 0-.565-.149-1.033-.439-1.405-.32-.402-.751-.603-1.301-.603-.476 0-.863.223-1.176.677V5h-.788Zm1.785 2.105c.387 0 .677.126.863.394.163.223.245.55.245.974 0 .424-.082.752-.23.99-.186.275-.469.416-.856.416a.92.92 0 0 1-.795-.409c-.164-.245-.246-.558-.246-.945v-.067c0-.416.097-.75.305-1.004a.842.842 0 0 1 .714-.35Z"
              data-v-87d7fafe=""></path>
    </g>
</svg>
