<svg xmlns="http://www.w3.org/2000/svg" width="16"
     height="16" spin="false" rtl="false" viewBox="0 0 16 16"
     preserveAspectRatio="xMidYMid meet" fill="none" role="presentation"
     class="i-icon align-text-bottom" data-v-d7e84ea2="">
    <g data-v-d7e84ea2="">
        <circle fill="#F7DD57" r="8" cy="8" cx="8" data-v-d7e84ea2=""></circle>
        <path fill="#392018"
              d="M8 4c2.485 0 4.5 1.57 4.5 3.508 0 1.937-2.015 3.507-4.5 3.507-.247 0-.495-.015-.74-.047l-1.89 1.236c-.214.113-.29.1-.202-.177l.383-1.577C4.316 9.825 3.5 8.74 3.5 7.508 3.5 5.57 5.515 4 8 4Zm2.532 3.454.63-.61a.202.202 0 0 0-.282-.29l-.826.8v-.662a.202.202 0 1 0-.404 0v1.096a.202.202 0 0 0 0 .095V8.5a.202.202 0 0 0 .404 0v-.584l.183-.177.612.871a.202.202 0 0 0 .331-.233l-.648-.923Zm-1.268.825h-.626v-1.58a.202.202 0 0 0-.404 0V8.48c0 .112.09.202.202.202h.828a.202.202 0 1 0 0-.404Zm-2.51-.468.298-.732.273.732h-.571Zm1.081.209v-.007a.2.2 0 0 0-.054-.137l-.448-1.2a.296.296 0 0 0-.269-.203.298.298 0 0 0-.28.191l-.711 1.747a.202.202 0 1 0 .374.153l.142-.349h.887l.128.343a.202.202 0 1 0 .379-.141l-.148-.397ZM6.411 6.7a.202.202 0 0 0-.201-.2H4.82a.202.202 0 1 0 0 .404h.497v1.601a.202.202 0 0 0 .404 0v-1.6h.489a.202.202 0 0 0 .202-.203Z"
              data-v-d7e84ea2=""></path>
    </g>
</svg>
