<svg xmlns="http://www.w3.org/2000/svg" width="16"
     height="16" spin="false" rtl="false" viewBox="0 0 16 16"
     preserveAspectRatio="xMidYMid meet" fill="none" role="presentation"
     class="i-icon align-text-bottom" data-v-81a95c3c="">
    <g data-v-81a95c3c="">
        <circle cx="8" cy="8" r="8" fill="#53B835" data-v-81a95c3c=""></circle>
        <path
                d="M8 4.513c-2.266 0-4.103 1.452-4.103 3.244 0 1.665 1.586 3.035 3.628 3.222a.248.248 0 0 1 .166.11c.091.15.027.469-.044.827-.07.358.313.172.397.13.068-.032 1.802-1.014 2.835-1.978.755-.588 1.224-1.406 1.224-2.31 0-1.793-1.837-3.245-4.103-3.245ZM6.633 8.606a.22.22 0 0 1-.221.218h-.75c-.132 0-.309-.046-.309-.261V6.95a.22.22 0 0 1 .22-.217h.045a.218.218 0 0 1 .22.217v1.394h.574a.218.218 0 0 1 .22.218v.043Zm.618-.043a.222.222 0 0 1-.22.221.22.22 0 0 1-.22-.221V6.998a.222.222 0 0 1 .22-.222.22.22 0 0 1 .22.222v1.565Zm1.94 0a.245.245 0 0 1-.22.218.249.249 0 0 1-.26-.125L8 7.655v.908a.222.222 0 0 1-.221.216.22.22 0 0 1-.22-.216V6.995a.22.22 0 0 1 .22-.218.278.278 0 0 1 .25.16c.068.101.72 1.015.72 1.015v-.957a.222.222 0 0 1 .221-.216.22.22 0 0 1 .22.216v1.568Zm1.324-1.002a.216.216 0 0 1 .216.218.219.219 0 0 1-.216.218H9.94v.348h.574a.216.216 0 0 1 .222.218.219.219 0 0 1-.138.203.216.216 0 0 1-.084.015h-.86a.196.196 0 0 1-.2-.196V6.973a.198.198 0 0 1 .2-.196h.86a.216.216 0 0 1 .205.134.219.219 0 0 1-.12.287.215.215 0 0 1-.085.015H9.94v.348h.574Z"
                fill="#fff" data-v-81a95c3c=""></path>
    </g>
</svg>
