<svg xmlns="http://www.w3.org/2000/svg" width="16"
     height="16" spin="false" rtl="false" viewBox="0 0 16 16"
     preserveAspectRatio="xMidYMid meet" fill="none" role="presentation"
     class="i-icon align-text-bottom" data-v-ee8ce314="">
    <g data-v-ee8ce314="">
        <circle cx="8" cy="8" r="8" fill="#007AB7" data-v-ee8ce314=""></circle>
        <path fill-rule="evenodd" clip-rule="evenodd"
              d="M6.412 6.83h-1.19v3.837h1.19V6.83Zm.098-1.215a.69.69 0 1 0-1.382-.002.69.69 0 0 0 1.382.002ZM8.3 6.83H7.163v3.837h1.189V8.768c0-.499.093-.984.713-.984.611 0 .618.572.618 1.018v1.865h1.189V8.564c0-1.033-.224-1.827-1.428-1.827-.58 0-.968.317-1.127.619H8.3V6.83Z"
              fill="#fff" data-v-ee8ce314=""></path>
    </g>
</svg>
