<svg xmlns="http://www.w3.org/2000/svg" width="16"
     height="16" spin="false" rtl="false" viewBox="0 0 16 16"
     preserveAspectRatio="xMidYMid meet" fill="none" role="presentation"
     class="i-icon align-text-bottom" data-v-d8a6d181="">
    <g data-v-d8a6d181="">
        <circle cx="8" cy="8" r="8" fill="#EA332A" data-v-d8a6d181=""></circle>
        <path fill-rule="evenodd" clip-rule="evenodd"
              d="M8.255 3.692c-2.352 0-3.537 1.686-3.537 3.092 0 .85.322 1.608 1.013 1.89.114.046.215.002.248-.124l.101-.397c.033-.124.02-.168-.071-.276-.2-.235-.327-.54-.327-.97 0-1.251.936-2.37 2.437-2.37 1.329 0 2.059.812 2.059 1.896 0 1.427-.632 2.631-1.57 2.631-.517 0-.904-.428-.78-.953.149-.627.437-1.304.437-1.756 0-.405-.218-.743-.668-.743-.529 0-.954.547-.954 1.28 0 .468.158.784.158.784l-.637 2.697c-.189.8-.028 1.781-.015 1.88.009.059.084.073.118.028.049-.063.68-.842.893-1.62.061-.22.349-1.36.349-1.36.171.329.674.617 1.208.617 1.591 0 2.67-1.45 2.67-3.391 0-1.468-1.243-2.835-3.132-2.835Z"
              fill="#fff" data-v-d8a6d181=""></path>
    </g>
</svg>
