<svg xmlns="http://www.w3.org/2000/svg" width="16"
     height="16" spin="false" rtl="false" viewBox="0 0 16 16"
     preserveAspectRatio="xMidYMid meet" fill="none" role="presentation"
     class="i-icon align-text-bottom" data-v-f9115259="">
    <g data-v-f9115259="">
        <circle cx="8" cy="8" r="8" fill="#3FA5EE" data-v-f9115259=""></circle>
        <path
                d="M11.048 8.986c-.156-.501-.335-.922-.61-1.61.042-1.81-.71-3.273-2.442-3.273-1.752 0-2.488 1.492-2.44 3.272-.278.69-.456 1.108-.612 1.61-.331 1.068-.224 1.509-.142 1.519.175.021.683-.803.683-.803 0 .477.245 1.1.777 1.55-.257.078-.835.29-.697.523.11.188 1.911.12 2.43.062.52.058 2.32.126 2.432-.062.137-.232-.442-.445-.698-.524.532-.45.778-1.073.778-1.55 0 0 .507.825.683.804.082-.011.19-.452-.142-1.518Z"
                fill="#fff" data-v-f9115259=""></path>
    </g>
</svg>
