<svg xmlns="http://www.w3.org/2000/svg" width="16"
     height="16" spin="false" rtl="false" viewBox="0 0 16 16"
     preserveAspectRatio="xMidYMid meet" fill="none" role="presentation"
     class="i-icon align-text-bottom" data-v-1350c867="">
    <g data-v-1350c867="">
        <circle r="8" cx="8" cy="8" fill="#50ACEA" data-v-1350c867=""></circle>
        <path fill-rule="evenodd" clip-rule="evenodd"
              d="M11.364 8.037c0 .241-.027.477-.078.703.129.255.201.542.201.845 0 1.05-.863 1.902-1.929 1.902-.33 0-.64-.082-.912-.226a3.394 3.394 0 0 1-.609.056c-1.837 0-3.326-1.469-3.326-3.28 0-.226.023-.447.067-.66a1.873 1.873 0 0 1-.265-.962c0-1.05.863-1.902 1.929-1.902.377 0 .729.107 1.026.292a3.39 3.39 0 0 1 .57-.048c1.836 0 3.325 1.468 3.325 3.28ZM9.066 10.11c.295-.121.522-.291.676-.506.155-.215.233-.462.233-.732 0-.226-.046-.42-.135-.578a1.125 1.125 0 0 0-.375-.39 2.39 2.39 0 0 0-.57-.256 8.32 8.32 0 0 0-.735-.19 12.525 12.525 0 0 1-.46-.111 1.481 1.481 0 0 1-.268-.103.597.597 0 0 1-.198-.148.287.287 0 0 1-.066-.191c0-.122.067-.225.206-.315.144-.093.338-.14.576-.14.257 0 .444.043.556.127.115.086.215.208.298.364.072.122.136.206.199.26a.424.424 0 0 0 .286.089.46.46 0 0 0 .342-.141c.09-.093.136-.2.136-.317a.781.781 0 0 0-.104-.374A1.18 1.18 0 0 0 9.34 6.1a1.728 1.728 0 0 0-.55-.27 2.666 2.666 0 0 0-.776-.101c-.372 0-.7.05-.976.151-.28.102-.497.251-.646.442-.15.193-.226.416-.226.664 0 .26.073.481.216.658.14.173.333.312.571.412l.003.001c.233.097.525.184.869.256.254.053.459.103.61.15a.907.907 0 0 1 .355.192.4.4 0 0 1 .129.311c0 .164-.08.298-.247.41-.17.114-.395.172-.67.172-.2 0-.362-.029-.483-.085a.735.735 0 0 1-.279-.213 1.65 1.65 0 0 1-.19-.334.745.745 0 0 0-.196-.28.445.445 0 0 0-.293-.101.493.493 0 0 0-.347.127.409.409 0 0 0-.139.31c0 .192.072.391.213.592.14.2.324.36.548.48.312.163.713.246 1.19.246.399 0 .749-.06 1.04-.18Z"
              fill="#fff" data-v-1350c867=""></path>
    </g>
</svg>
