<svg xmlns="http://www.w3.org/2000/svg" width="16"
     height="16" spin="false" rtl="false" viewBox="0 0 16 16"
     preserveAspectRatio="xMidYMid meet" fill="none" role="presentation"
     class="i-icon align-text-bottom" data-v-b66fe707="">
    <g data-v-b66fe707="">
        <path d="M0 8a8 8 0 1 0 16 0A8 8 0 0 0 0 8Z" fill="#000" data-v-b66fe707=""></path>
        <path
                d="M9.71 6.916c.492.36 1.094.571 1.744.571v-1.28a1.73 1.73 0 0 1-.366-.04v1.009c-.65 0-1.252-.212-1.744-.572v2.614c0 1.308-1.036 2.368-2.313 2.368-.477 0-.92-.148-1.288-.4a2.28 2.28 0 0 0 1.654.711c1.278 0 2.313-1.06 2.313-2.367V6.916Zm.452-1.292A1.805 1.805 0 0 1 9.71 4.58v-.165h-.347c.088.51.386.946.8 1.21Zm-3.61 4.558a1.095 1.095 0 0 1-.216-.656 1.07 1.07 0 0 1 1.058-1.083c.109 0 .217.017.32.051v-1.31a2.28 2.28 0 0 0-.366-.02v1.018a1.037 1.037 0 0 0-.32-.05 1.07 1.07 0 0 0-1.059 1.082c0 .423.237.79.582.968Z"
                fill="#FF004F" data-v-b66fe707=""></path>
        <path
                d="M9.344 6.604c.492.36 1.094.572 1.744.572V6.167a1.742 1.742 0 0 1-.926-.543 1.795 1.795 0 0 1-.799-1.21h-.911V9.53a1.07 1.07 0 0 1-1.058 1.08c-.344 0-.65-.168-.843-.428a1.086 1.086 0 0 1-.582-.968 1.07 1.07 0 0 1 1.058-1.082c.112 0 .22.017.321.05V7.163C6.093 7.19 5.084 8.24 5.084 9.53c0 .644.251 1.228.66 1.655.38.262.828.401 1.287.4 1.278 0 2.313-1.06 2.313-2.367V6.604Z"
                fill="#fff" data-v-b66fe707=""></path>
        <path
                d="M11.088 6.167v-.272c-.327 0-.648-.093-.926-.27.246.275.57.465.926.542ZM9.363 4.414a1.867 1.867 0 0 1-.019-.147v-.164H8.085v5.115a1.07 1.07 0 0 1-1.058 1.08c-.165 0-.328-.04-.476-.116.194.26.499.427.843.427a1.07 1.07 0 0 0 1.058-1.08V4.415h.911Zm-2.015 2.75v-.291a2.282 2.282 0 0 0-.317-.022c-1.277 0-2.313 1.06-2.313 2.367 0 .82.407 1.542 1.025 1.967a2.388 2.388 0 0 1-.659-1.655c0-1.29 1.01-2.34 2.264-2.367Z"
                fill="#00F2EA" data-v-b66fe707=""></path>
    </g>
</svg>
