<svg xmlns="http://www.w3.org/2000/svg" width="16"
     height="16" spin="false" rtl="false" viewBox="0 0 16 16"
     preserveAspectRatio="xMidYMid meet" fill="none" role="presentation"
     class="i-icon align-text-bottom" data-v-b7ce29ba="">
    <g data-v-b7ce29ba="">
        <circle r="8" cx="8" cy="8" fill="#3676F6" data-v-b7ce29ba=""></circle>
        <path
                d="M10.458 8.688c.245.246.504.478.723.75.097.12.19.245.26.385.1.199.009.418-.164.43l-1.076-.001c-.277.024-.499-.091-.685-.287-.149-.156-.287-.323-.43-.485a1.03 1.03 0 0 0-.194-.177c-.147-.098-.274-.068-.358.09-.085.16-.105.338-.113.517-.012.261-.088.33-.343.342-.544.026-1.06-.059-1.54-.341-.422-.25-.75-.602-1.035-1-.555-.776-.98-1.628-1.363-2.505-.086-.197-.023-.303.188-.307.351-.007.702-.006 1.053 0 .143.002.237.086.292.225.19.481.423.94.714 1.364.078.113.157.226.27.305.125.088.22.059.278-.084a.97.97 0 0 0 .062-.286A4.389 4.389 0 0 0 6.98 6.62c-.03-.208-.144-.343-.345-.382-.103-.02-.088-.06-.038-.12.087-.104.168-.17.33-.17h1.216c.191.04.234.128.26.327l.001 1.392c-.002.077.037.305.172.356.107.036.178-.053.242-.123.292-.318.5-.695.685-1.085.082-.17.153-.349.222-.527.05-.132.13-.197.275-.194l1.17.001c.034 0 .07 0 .103.007.197.034.251.122.19.32-.095.312-.282.571-.465.832-.195.278-.404.547-.597.827-.178.256-.164.385.057.607Z"
                fill="#fff" data-v-b7ce29ba=""></path>
    </g>
</svg>
