<svg xmlns="http://www.w3.org/2000/svg" width="16"
     height="16" spin="false" rtl="false" viewBox="0 0 16 16"
     preserveAspectRatio="xMidYMid meet" fill="none" role="presentation"
     class="i-icon align-text-bottom" data-v-c7c2184c="">
    <g data-v-c7c2184c="">
        <circle cx="8" cy="8" r="8" fill="#60C156" data-v-c7c2184c=""></circle>
        <path
                d="M8.07 4.103c-2.113 0-3.826 1.7-3.826 3.797 0 .717.2 1.388.55 1.96l-.691 2.037 2.118-.673a3.833 3.833 0 0 0 1.85.473c2.113 0 3.826-1.7 3.826-3.797 0-2.098-1.713-3.797-3.826-3.797Zm1.903 5.239c-.09.223-.497.426-.676.436-.18.01-.185.139-1.163-.286-.979-.425-1.567-1.459-1.614-1.525-.046-.067-.379-.54-.36-1.018.017-.477.279-.702.372-.795.093-.094.2-.11.265-.112.077-.001.127-.002.184 0 .057.002.142-.012.216.185.074.197.252.681.274.73.023.05.037.107.002.17-.035.064-.053.104-.104.159-.05.055-.107.122-.152.164-.051.047-.104.097-.05.196.052.1.237.424.517.692.36.344.672.458.767.51.096.052.154.046.213-.016.06-.063.255-.274.324-.369.069-.094.133-.076.221-.04.089.035.56.288.656.34.096.052.16.079.183.12.023.041.015.235-.075.459Z"
                fill="#fff" data-v-c7c2184c=""></path>
    </g>
</svg>
