<svg xmlns="http://www.w3.org/2000/svg" width="16"
     height="16" spin="false" rtl="false" viewBox="0 0 16 16"
     preserveAspectRatio="xMidYMid meet" fill="none" role="presentation"
     class="i-icon align-text-bottom" data-v-d37456ae="">
    <g data-v-d37456ae="">
        <circle cx="8" cy="8" r="8" fill="#F52929" data-v-d37456ae=""></circle>
        <path fill-rule="evenodd" clip-rule="evenodd"
              d="M11.323 5.559c.217.248.293.81.293.81s.076.665.076 1.33v.614c0 .653-.076 1.319-.076 1.319s-.076.561-.293.809c-.266.298-.567.324-.716.337l-.022.002c-1.032.092-2.585.092-2.585.092s-1.923-.013-2.508-.079c-.031-.007-.07-.012-.113-.019-.188-.027-.475-.068-.702-.333-.216-.248-.293-.81-.293-.81s-.076-.652-.076-1.318V7.7c0-.666.076-1.332.076-1.332s.064-.561.293-.809c.266-.298.567-.324.717-.337l.021-.002C6.447 5.14 8 5.128 8 5.128s1.553.013 2.585.092l.035.002c.153.013.444.035.703.337ZM7.11 9.514V6.682L9.528 8.13l-2.42 1.383Z"
              fill="#fff" data-v-d37456ae=""></path>
    </g>
</svg>
